<svg width="56" height="56" viewBox="0 0 56 56" fill="none" xmlns="http://www.w3.org/2000/svg">
<path d="M39.4473 16.761C39.4584 16.761 39.4733 16.761 39.4882 16.761C39.8768 16.761 40.2375 16.8818 40.5331 17.09L40.5275 17.0863C40.7432 17.2741 40.8882 17.5381 40.9235 17.8356V17.8412C40.9607 18.068 40.9811 18.3283 40.9811 18.5942C40.9811 18.715 40.9774 18.834 40.9681 18.953V18.9363C40.5498 23.3408 38.7352 34.022 37.813 38.9527C37.4226 41.0406 36.6547 41.7397 35.911 41.8066C34.2954 41.9572 33.0683 40.7394 31.5028 39.7132C29.0523 38.1049 27.6672 37.1046 25.2892 35.5373C22.5394 33.7283 24.3224 32.7299 25.8879 31.1049C26.2988 30.6773 33.4215 24.1979 33.561 23.6104C33.5684 23.575 33.5721 23.536 33.5721 23.4951C33.5721 23.3501 33.5182 23.2181 33.4308 23.1177C33.3341 23.0544 33.2133 23.0191 33.0869 23.0191C33.0032 23.0191 32.9232 23.0359 32.8489 23.0637L32.8526 23.0619C32.6072 23.1177 28.6929 25.7044 21.1097 30.8223C20.2823 31.4749 19.2375 31.8876 18.0996 31.936H18.0884C16.4765 31.7408 15.0133 31.3819 13.6244 30.8707L13.762 30.9153C12.0181 30.3463 10.6329 30.047 10.7519 29.0839C10.8151 28.5832 11.5055 28.0707 12.8231 27.5463C20.9392 24.0101 26.3515 21.6792 29.0598 20.5538C32.0475 18.9679 35.5113 17.6627 39.1535 16.8167L39.4454 16.7591L39.4473 16.761ZM27.9349 0C12.4996 0.0371846 0 12.5591 0 28C0 43.4632 12.5349 56 28 56C43.4651 56 56 43.4651 56 28C56 12.5591 43.5004 0.0371846 28.0688 0H28.0651C28.0217 0 27.9783 0 27.9349 0Z" fill="#E30613"/>
</svg>
