<svg width="56" height="56" viewBox="0 0 56 56" fill="none" xmlns="http://www.w3.org/2000/svg">
<path d="M28 0C12.5344 0 0 12.5344 0 28C0 43.4656 12.5344 56 28 56C43.4656 56 56 43.4656 56 28C56 12.5344 43.4656 0 28 0ZM39.1782 23.6469C39.1891 23.8875 39.1891 24.1391 39.1891 24.3907C39.1891 31.9922 33.4032 40.7641 22.8157 40.7641C19.5672 40.7641 16.5375 39.8125 14 38.1828C14.4484 38.2375 14.9078 38.2593 15.3782 38.2593C18.0688 38.2593 20.5516 37.3406 22.5203 35.7984C20.0047 35.7547 17.8719 34.0922 17.15 31.8062C17.5 31.8718 17.8609 31.9047 18.2328 31.9047C18.7578 31.9047 19.2719 31.8391 19.7532 31.6968C17.1172 31.1718 15.1375 28.8422 15.1375 26.0532V25.9875C15.9141 26.4141 16.8 26.6766 17.7406 26.7094C16.1984 25.6812 15.1812 23.9093 15.1812 21.9188C15.1812 20.8687 15.4656 19.8734 15.9578 19.0203C18.8016 22.5093 23.0344 24.7953 27.8141 25.0359C27.7157 24.6203 27.6609 24.1828 27.6609 23.7234C27.6609 20.5516 30.2422 17.9703 33.4141 17.9703C35.0657 17.9703 36.5641 18.6703 37.6141 19.7859C38.9266 19.5234 40.1516 19.0532 41.2672 18.3859C40.8406 19.7313 39.9219 20.8578 38.7407 21.5688C39.9 21.4266 41.0156 21.1203 42.0438 20.6609C41.2781 21.8203 40.3047 22.8266 39.1782 23.6469Z" fill="#E30613"/>
</svg>
